<svg width="64" height="64" viewBox="0 0 64 64" fill="none" xmlns="http://www.w3.org/2000/svg" shape-rendering="crispEdges">
  <rect width="64" height="64" fill="#14142f"/>
  <rect x="5" y="8" width="2" height="2" fill="#fff4bd"/>
  <rect x="18" y="15" width="2" height="2" fill="#ffffff"/>
  <rect x="35" y="6" width="2" height="2" fill="#66e3ff"/>
  <rect x="54" y="17" width="2" height="2" fill="#fff4bd"/>
  <rect x="8" y="36" width="2" height="2" fill="#ffffff"/>
  <rect x="47" y="45" width="2" height="2" fill="#66e3ff"/>
  <rect x="52" y="6" width="7" height="7" fill="#6f6cff"/>
  <rect x="50" y="8" width="11" height="3" fill="#8a8cff"/>
  <rect x="7" y="49" width="18" height="5" fill="#5b5ee1"/>
  <rect x="10" y="46" width="12" height="4" fill="#8a8cff"/>
  <rect x="22" y="47" width="7" height="3" fill="#ffd95a"/>
  <rect x="3" y="50" width="5" height="2" fill="#f04b4b"/>
  <rect x="34" y="28" width="17" height="5" fill="#c9d8e8"/>
  <rect x="46" y="25" width="6" height="11" fill="#f04b4b"/>
  <rect x="37" y="30" width="5" height="2" fill="#66e3ff"/>
  <rect x="30" y="27" width="5" height="7" fill="#ffd95a"/>
</svg>
