<svg width="64" height="64" viewBox="0 0 64 64" fill="none" xmlns="http://www.w3.org/2000/svg" shape-rendering="crispEdges">
  <rect width="64" height="64" fill="#1f9bd1"/>
  <rect y="12" width="64" height="7" fill="#66e3ff" opacity="0.75"/>
  <rect y="44" width="64" height="20" fill="#0877a5"/>
  <rect x="7" y="48" width="4" height="12" fill="#24c466"/>
  <rect x="12" y="52" width="3" height="8" fill="#1f8f4d"/>
  <rect x="50" y="47" width="3" height="13" fill="#24c466"/>
  <rect x="55" y="51" width="4" height="9" fill="#1f8f4d"/>
  <rect x="7" y="9" width="4" height="4" fill="#ffffff" opacity="0.7"/>
  <rect x="12" y="6" width="3" height="3" fill="#ffffff" opacity="0.55"/>
  <rect x="48" y="24" width="8" height="5" fill="#ffd95a"/>
  <rect x="56" y="25" width="4" height="3" fill="#f04b4b"/>
  <rect x="49" y="26" width="2" height="1" fill="#1f183d"/>
  <rect x="5" y="31" width="9" height="5" fill="#ff79b8"/>
  <rect x="2" y="32" width="4" height="3" fill="#f04b4b"/>
  <rect x="11" y="33" width="2" height="1" fill="#1f183d"/>
  <rect x="39" y="52" width="5" height="5" fill="#ffb86b"/>
  <rect x="44" y="50" width="3" height="3" fill="#ffb86b"/>
</svg>
