<svg xmlns="http://www.w3.org/2000/svg" style="display:none" shape-rendering="crispEdges">
  <symbol id="trophy" viewBox="0 0 32 32">
    <path fill="#7a4a12" d="M12 24h8v3h5v3H7v-3h5z"/>
    <path fill="#ffd866" d="M9 4h14v5h4v5h-3v3h-3v3H11v-3H8v-3H5V9h4z"/>
    <path fill="#f6a832" d="M12 7h8v9h-8zM5 10h4v3H7v-1H5zM23 10h4v2h-2v1h-2z"/>
    <path fill="#fff0a3" d="M13 6h7v2h-7z"/>
  </symbol>
  <symbol id="gold" viewBox="0 0 32 32">
    <path fill="#7b3f17" d="M12 18h8v10h-8z"/>
    <path fill="#f04b4b" d="M10 18h5v9l-3-2-2 2zM17 18h5v9l-2-2-3 2z"/>
    <path fill="#ffe27a" d="M8 4h16v4h4v12H4V8h4z"/>
    <path fill="#f6a832" d="M9 8h14v9H9z"/>
    <path fill="#fff0a3" d="M12 6h8v2h-8z"/>
  </symbol>
  <symbol id="rooms" viewBox="0 0 32 32">
    <path fill="#5b5ee1" d="M5 7h10v9H5zM17 5h10v11H17zM7 18h20v9H7z"/>
    <path fill="#9aa1ff" d="M7 9h6v5H7zM19 7h6v7h-6zM9 20h16v5H9z"/>
    <path fill="#ffd866" d="M14 21h4v6h-4z"/>
  </symbol>
  <symbol id="kitchen" viewBox="0 0 32 32">
    <path fill="#c9d8e8" d="M8 5h4v10H8zM14 4h3v11h-3zM20 5h4v10h-4z"/>
    <path fill="#6f7f90" d="M7 14h18v3H7z"/>
    <path fill="#f6a832" d="M9 18h14v8H9z"/>
    <path fill="#ffe27a" d="M12 20h8v4h-8z"/>
  </symbol>
  <symbol id="speed" viewBox="0 0 32 32">
    <path fill="#2f3a8f" d="M8 20h4v4H8zM13 15h4v4h-4zM18 10h4v4h-4z"/>
    <path fill="#ffe27a" d="M18 3h7l-5 9h6L13 29l3-12h-6z"/>
    <path fill="#fff0a3" d="M20 5h3l-5 8h3l-4 5 1-7h-3z"/>
  </symbol>
  <symbol id="shield" viewBox="0 0 32 32">
    <path fill="#39446d" d="M6 5h20v10c0 7-4 11-10 14C10 26 6 22 6 15z"/>
    <path fill="#6ee7b7" d="M9 8h14v7c0 5-3 8-7 10-4-2-7-5-7-10z"/>
    <path fill="#ffffff" d="M14 12h4v8h-4zM12 14h8v4h-8z"/>
  </symbol>
  <symbol id="stars" viewBox="0 0 32 32">
    <path fill="#ffd866" d="M15 3h3v7h7v3h-5v4h-4v-4h-6v-3h5zM7 18h3v4h4v3h-4v4H7v-4H3v-3h4zM23 20h2v3h3v2h-3v3h-2v-3h-3v-2h3z"/>
  </symbol>
  <symbol id="streak" viewBox="0 0 32 32">
    <path fill="#f04b4b" d="M16 3c6 5 10 10 10 16 0 6-4 10-10 10S6 25 6 19c0-5 3-8 6-12 0 4 2 6 4 7 2-3 2-6 0-11z"/>
    <path fill="#ffd866" d="M16 14c3 3 5 5 5 8 0 3-2 5-5 5s-5-2-5-5c0-2 1-4 3-6 0 2 1 3 2 4 1-2 1-4 0-6z"/>
  </symbol>
  <symbol id="calendar" viewBox="0 0 32 32">
    <path fill="#39446d" d="M6 6h20v21H6z"/>
    <path fill="#9aa1ff" d="M8 10h16v15H8z"/>
    <path fill="#ffd866" d="M10 13h4v4h-4zM16 13h4v4h-4zM10 19h4v4h-4zM16 19h4v4h-4z"/>
    <path fill="#f04b4b" d="M10 4h3v5h-3zM19 4h3v5h-3z"/>
  </symbol>
</svg>
