<svg xmlns="http://www.w3.org/2000/svg">
  <symbol id="kitchen" viewBox="0 0 64 64">
    <rect x="6" y="6" width="52" height="52" fill="#fff7d6" stroke="#1f183d" stroke-width="4"/>
    <rect x="13" y="16" width="14" height="34" fill="#ff8a3d" stroke="#1f183d" stroke-width="3"/>
    <rect x="30" y="16" width="8" height="34" fill="#f6f2ff" stroke="#1f183d" stroke-width="3"/>
    <rect x="41" y="15" width="10" height="36" fill="#ffd95a" stroke="#1f183d" stroke-width="3"/>
    <rect x="17" y="12" width="7" height="7" fill="#66e3ff"/>
    <rect x="44" y="20" width="4" height="24" fill="#1f183d"/>
  </symbol>
  <symbol id="bath" viewBox="0 0 64 64">
    <rect x="6" y="6" width="52" height="52" fill="#ecfbff" stroke="#1f183d" stroke-width="4"/>
    <rect x="12" y="32" width="40" height="15" fill="#66e3ff" stroke="#1f183d" stroke-width="3"/>
    <rect x="17" y="47" width="8" height="5" fill="#1f183d"/>
    <rect x="40" y="47" width="8" height="5" fill="#1f183d"/>
    <rect x="15" y="22" width="13" height="8" fill="#ffffff" stroke="#1f183d" stroke-width="3"/>
    <rect x="38" y="18" width="8" height="14" fill="#2d72ff" stroke="#1f183d" stroke-width="3"/>
    <rect x="45" y="15" width="8" height="4" fill="#1f183d"/>
  </symbol>
  <symbol id="bedroom" viewBox="0 0 64 64">
    <rect x="6" y="6" width="52" height="52" fill="#f7f1ff" stroke="#1f183d" stroke-width="4"/>
    <rect x="12" y="31" width="40" height="16" fill="#5354ff" stroke="#1f183d" stroke-width="3"/>
    <rect x="16" y="24" width="14" height="9" fill="#fff4bd" stroke="#1f183d" stroke-width="3"/>
    <rect x="32" y="24" width="17" height="9" fill="#ff79b8" stroke="#1f183d" stroke-width="3"/>
    <rect x="13" y="47" width="5" height="6" fill="#1f183d"/>
    <rect x="47" y="47" width="5" height="6" fill="#1f183d"/>
  </symbol>
  <symbol id="living" viewBox="0 0 64 64">
    <rect x="6" y="6" width="52" height="52" fill="#fff4fb" stroke="#1f183d" stroke-width="4"/>
    <rect x="13" y="29" width="38" height="15" fill="#b56cff" stroke="#1f183d" stroke-width="3"/>
    <rect x="10" y="24" width="12" height="19" fill="#ff79b8" stroke="#1f183d" stroke-width="3"/>
    <rect x="42" y="24" width="12" height="19" fill="#ff79b8" stroke="#1f183d" stroke-width="3"/>
    <rect x="18" y="44" width="7" height="7" fill="#1f183d"/>
    <rect x="39" y="44" width="7" height="7" fill="#1f183d"/>
  </symbol>
  <symbol id="hall" viewBox="0 0 64 64">
    <rect x="6" y="6" width="52" height="52" fill="#fffaf0" stroke="#1f183d" stroke-width="4"/>
    <rect x="19" y="13" width="26" height="40" fill="#ffd95a" stroke="#1f183d" stroke-width="3"/>
    <rect x="24" y="18" width="16" height="30" fill="#fffaf0" stroke="#1f183d" stroke-width="3"/>
    <rect x="36" y="32" width="5" height="5" fill="#1f183d"/>
    <rect x="11" y="46" width="13" height="6" fill="#6bff9e" stroke="#1f183d" stroke-width="3"/>
  </symbol>
  <symbol id="garden" viewBox="0 0 64 64">
    <rect x="6" y="6" width="52" height="52" fill="#eafff0" stroke="#1f183d" stroke-width="4"/>
    <rect x="10" y="40" width="44" height="13" fill="#54d66f" stroke="#1f183d" stroke-width="3"/>
    <rect x="29" y="23" width="7" height="19" fill="#8b5a2b" stroke="#1f183d" stroke-width="3"/>
    <rect x="20" y="15" width="24" height="16" fill="#6bff9e" stroke="#1f183d" stroke-width="3"/>
    <rect x="15" y="35" width="8" height="8" fill="#ffd95a" stroke="#1f183d" stroke-width="2"/>
    <rect x="45" y="33" width="7" height="10" fill="#66e3ff" stroke="#1f183d" stroke-width="2"/>
  </symbol>
  <symbol id="storage" viewBox="0 0 64 64">
    <rect x="6" y="6" width="52" height="52" fill="#f7f1ff" stroke="#1f183d" stroke-width="4"/>
    <rect x="14" y="18" width="36" height="30" fill="#8b5a2b" stroke="#1f183d" stroke-width="3"/>
    <rect x="19" y="13" width="26" height="8" fill="#b56cff" stroke="#1f183d" stroke-width="3"/>
    <rect x="19" y="28" width="26" height="4" fill="#1f183d"/>
    <rect x="25" y="38" width="14" height="5" fill="#ffd95a"/>
  </symbol>
</svg>
