<svg width="320" height="180" viewBox="0 0 320 180" fill="none" xmlns="http://www.w3.org/2000/svg" shape-rendering="crispEdges">
<rect x="0" y="0" width="320" height="90" fill="#6ec8ff"/>
<rect x="0" y="90" width="320" height="30" fill="#3aa0e8"/>
<rect x="0" y="110" width="320" height="70" fill="#f2d08a"/>
<rect x="250" y="18" width="28" height="28" fill="#ffd76a"/>
<rect x="256" y="24" width="16" height="16" fill="#fff4bd"/>
<rect x="30" y="22" width="40" height="12" fill="#fff"/>
<rect x="40" y="16" width="28" height="10" fill="#fff"/>
<rect x="140" y="28" width="50" height="12" fill="#fff"/>
<rect x="0" y="108" width="320" height="4" fill="#dff7ff"/>
<rect x="0" y="112" width="320" height="3" fill="rgba(255,255,255,0.5)"/>
<rect x="24" y="70" width="6" height="40" fill="#7a4a12"/>
<rect x="10" y="60" width="20" height="10" fill="#2f8f4e"/>
<rect x="20" y="52" width="22" height="12" fill="#53e3c0"/>
<rect x="280" y="74" width="6" height="36" fill="#7a4a12"/>
<rect x="268" y="62" width="22" height="12" fill="#2f8f4e"/>
<rect x="0" y="150" width="320" height="30" fill="#e8c06a"/>
</svg>
