<svg width="320" height="180" viewBox="0 0 320 180" fill="none" xmlns="http://www.w3.org/2000/svg" shape-rendering="crispEdges">
<rect x="0" y="0" width="320" height="180" fill="#1b1540"/>
<rect x="0" y="0" width="320" height="120" fill="#3a3270"/>
<rect x="0" y="40" width="320" height="90" fill="#7b82c9"/>
<rect x="0" y="40" width="2" height="90" fill="#646bb0"/>
<rect x="40" y="40" width="2" height="90" fill="#646bb0"/>
<rect x="80" y="40" width="2" height="90" fill="#646bb0"/>
<rect x="120" y="40" width="2" height="90" fill="#646bb0"/>
<rect x="160" y="40" width="2" height="90" fill="#646bb0"/>
<rect x="200" y="40" width="2" height="90" fill="#646bb0"/>
<rect x="240" y="40" width="2" height="90" fill="#646bb0"/>
<rect x="280" y="40" width="2" height="90" fill="#646bb0"/>
<rect x="0" y="50" width="320" height="2" fill="#646bb0"/>
<rect x="0" y="66" width="320" height="2" fill="#646bb0"/>
<rect x="0" y="82" width="320" height="2" fill="#646bb0"/>
<rect x="0" y="98" width="320" height="2" fill="#646bb0"/>
<rect x="0" y="114" width="320" height="2" fill="#646bb0"/>
<rect x="0" y="120" width="320" height="60" fill="#4a3a28"/>
<rect x="0" y="118" width="320" height="4" fill="#1f183d"/>
<rect x="30" y="55" width="50" height="65" fill="#2a2458"/>
<rect x="40" y="65" width="30" height="40" fill="#9fdfff"/>
<rect x="135" y="45" width="50" height="75" fill="#2a2458"/>
<rect x="145" y="55" width="30" height="50" fill="#dff7ff"/>
<rect x="240" y="55" width="50" height="65" fill="#2a2458"/>
<rect x="250" y="65" width="30" height="40" fill="#9fdfff"/>
<rect x="70" y="20" width="14" height="36" fill="#f04b4b"/>
<rect x="236" y="20" width="14" height="36" fill="#f04b4b"/>
<rect x="72" y="28" width="10" height="4" fill="#ffd76a"/>
<rect x="238" y="28" width="10" height="4" fill="#ffd76a"/>
<rect x="110" y="130" width="100" height="28" fill="#ff4d6d"/>
<rect x="120" y="138" width="80" height="12" fill="#ffd76a"/>
</svg>
