<svg width="320" height="180" viewBox="0 0 320 180" fill="none" xmlns="http://www.w3.org/2000/svg" shape-rendering="crispEdges">
<rect x="0" y="0" width="320" height="180" fill="#06263f"/>
<rect x="0" y="0" width="320" height="40" fill="#0a3a5c"/>
<rect x="0" y="40" width="320" height="80" fill="#0e6a8f"/>
<rect x="0" y="100" width="320" height="80" fill="#0b8aa8"/>
<rect x="40" y="0" width="18" height="120" fill="rgba(223,247,255,0.08)"/>
<rect x="120" y="0" width="24" height="140" fill="rgba(223,247,255,0.1)"/>
<rect x="220" y="0" width="16" height="110" fill="rgba(223,247,255,0.07)"/>
<rect x="0" y="140" width="320" height="40" fill="#d6b56f"/>
<rect x="0" y="136" width="320" height="6" fill="#c49a4a"/>
<rect x="10" y="128" width="40" height="20" fill="#5a6a7a"/>
<rect x="260" y="124" width="50" height="24" fill="#5a6a7a"/>
<rect x="70" y="110" width="8" height="30" fill="#ff79b8"/>
<rect x="82" y="100" width="10" height="40" fill="#ff4d6d"/>
<rect x="200" y="108" width="8" height="32" fill="#ff9ec8"/>
<rect x="214" y="96" width="12" height="44" fill="#ff4d6d"/>
<rect x="50" y="50" width="4" height="4" fill="rgba(223,247,255,0.5)"/>
<rect x="90" y="70" width="3" height="3" fill="rgba(223,247,255,0.45)"/>
<rect x="180" y="40" width="5" height="5" fill="rgba(223,247,255,0.4)"/>
<rect x="250" y="60" width="3" height="3" fill="rgba(223,247,255,0.5)"/>
</svg>
