<svg width="320" height="180" viewBox="0 0 320 180" fill="none" xmlns="http://www.w3.org/2000/svg" shape-rendering="crispEdges">
<rect x="0" y="0" width="320" height="180" fill="#1f183d"/>
<rect x="0" y="0" width="320" height="110" fill="#ffd6ea"/>
<rect x="0" y="100" width="320" height="80" fill="#d6a56f"/>
<rect x="0" y="98" width="320" height="4" fill="#7a4a12"/>
<rect x="18" y="18" width="70" height="52" fill="#1f183d"/>
<rect x="22" y="22" width="62" height="44" fill="#9fdfff"/>
<rect x="52" y="22" width="3" height="44" fill="#fff"/>
<rect x="22" y="42" width="62" height="3" fill="#fff"/>
<rect x="24" y="24" width="18" height="10" fill="rgba(255,255,255,0.35)"/>
<rect x="16" y="14" width="10" height="60" fill="#ff79b8"/>
<rect x="80" y="14" width="10" height="60" fill="#ff79b8"/>
<rect x="250" y="20" width="48" height="40" fill="#fff4bd"/>
<rect x="254" y="24" width="40" height="32" fill="#6f6cff"/>
<rect x="262" y="32" width="12" height="12" fill="#ffd76a"/>
<rect x="120" y="28" width="90" height="6" fill="#7a4a12"/>
<rect x="126" y="34" width="18" height="16" fill="#53e3c0"/>
<rect x="150" y="34" width="18" height="16" fill="#ff9ec8"/>
<rect x="174" y="34" width="18" height="16" fill="#ffd76a"/>
<rect x="0" y="108" width="320" height="1" fill="rgba(122,74,18,0.25)"/>
<rect x="0" y="115" width="320" height="1" fill="rgba(122,74,18,0.25)"/>
<rect x="0" y="122" width="320" height="1" fill="rgba(122,74,18,0.25)"/>
<rect x="0" y="129" width="320" height="1" fill="rgba(122,74,18,0.25)"/>
<rect x="0" y="136" width="320" height="1" fill="rgba(122,74,18,0.25)"/>
<rect x="0" y="143" width="320" height="1" fill="rgba(122,74,18,0.25)"/>
<rect x="0" y="150" width="320" height="1" fill="rgba(122,74,18,0.25)"/>
<rect x="0" y="157" width="320" height="1" fill="rgba(122,74,18,0.25)"/>
<rect x="0" y="164" width="320" height="1" fill="rgba(122,74,18,0.25)"/>
<rect x="0" y="171" width="320" height="1" fill="rgba(122,74,18,0.25)"/>
</svg>
