<svg width="320" height="180" viewBox="0 0 320 180" fill="none" xmlns="http://www.w3.org/2000/svg" shape-rendering="crispEdges">
<rect x="0" y="0" width="320" height="180" fill="#070716"/>
<rect x="0" y="0" width="320" height="90" fill="#12122e"/>
<rect x="0" y="0" width="1" height="1" fill="#ffd76a"/>
<rect x="47" y="29" width="2" height="2" fill="#fff4bd"/>
<rect x="94" y="58" width="3" height="3" fill="#fff4bd"/>
<rect x="141" y="87" width="1" height="1" fill="#fff4bd"/>
<rect x="188" y="6" width="2" height="2" fill="#fff4bd"/>
<rect x="235" y="35" width="3" height="3" fill="#ffd76a"/>
<rect x="282" y="64" width="1" height="1" fill="#fff4bd"/>
<rect x="9" y="93" width="2" height="2" fill="#fff4bd"/>
<rect x="56" y="12" width="3" height="3" fill="#fff4bd"/>
<rect x="103" y="41" width="1" height="1" fill="#fff4bd"/>
<rect x="150" y="70" width="2" height="2" fill="#ffd76a"/>
<rect x="197" y="99" width="3" height="3" fill="#fff4bd"/>
<rect x="244" y="18" width="1" height="1" fill="#fff4bd"/>
<rect x="291" y="47" width="2" height="2" fill="#fff4bd"/>
<rect x="18" y="76" width="3" height="3" fill="#fff4bd"/>
<rect x="65" y="105" width="1" height="1" fill="#ffd76a"/>
<rect x="112" y="24" width="2" height="2" fill="#fff4bd"/>
<rect x="159" y="53" width="3" height="3" fill="#fff4bd"/>
<rect x="206" y="82" width="1" height="1" fill="#fff4bd"/>
<rect x="253" y="1" width="2" height="2" fill="#fff4bd"/>
<rect x="300" y="30" width="3" height="3" fill="#ffd76a"/>
<rect x="27" y="59" width="1" height="1" fill="#fff4bd"/>
<rect x="74" y="88" width="2" height="2" fill="#fff4bd"/>
<rect x="121" y="7" width="3" height="3" fill="#fff4bd"/>
<rect x="168" y="36" width="1" height="1" fill="#fff4bd"/>
<rect x="215" y="65" width="2" height="2" fill="#ffd76a"/>
<rect x="262" y="94" width="3" height="3" fill="#fff4bd"/>
<rect x="309" y="13" width="1" height="1" fill="#fff4bd"/>
<rect x="36" y="42" width="2" height="2" fill="#fff4bd"/>
<rect x="83" y="71" width="3" height="3" fill="#fff4bd"/>
<rect x="130" y="100" width="1" height="1" fill="#ffd76a"/>
<rect x="177" y="19" width="2" height="2" fill="#fff4bd"/>
<rect x="224" y="48" width="3" height="3" fill="#fff4bd"/>
<rect x="271" y="77" width="1" height="1" fill="#fff4bd"/>
<rect x="318" y="106" width="2" height="2" fill="#fff4bd"/>
<rect x="45" y="25" width="3" height="3" fill="#ffd76a"/>
<rect x="92" y="54" width="1" height="1" fill="#fff4bd"/>
<rect x="139" y="83" width="2" height="2" fill="#fff4bd"/>
<rect x="186" y="2" width="3" height="3" fill="#fff4bd"/>
<rect x="233" y="31" width="1" height="1" fill="#fff4bd"/>
<rect x="220" y="20" width="50" height="50" fill="#6f6cff"/>
<rect x="230" y="30" width="16" height="10" fill="#9aa4ff"/>
<rect x="248" y="42" width="12" height="8" fill="#ff79b8"/>
<rect x="0" y="120" width="320" height="60" fill="#2a2a4a"/>
<rect x="0" y="118" width="320" height="4" fill="#66e3ff"/>
<rect x="0" y="120" width="2" height="60" fill="#1f183d"/>
<rect x="20" y="120" width="2" height="60" fill="#1f183d"/>
<rect x="40" y="120" width="2" height="60" fill="#1f183d"/>
<rect x="60" y="120" width="2" height="60" fill="#1f183d"/>
<rect x="80" y="120" width="2" height="60" fill="#1f183d"/>
<rect x="100" y="120" width="2" height="60" fill="#1f183d"/>
<rect x="120" y="120" width="2" height="60" fill="#1f183d"/>
<rect x="140" y="120" width="2" height="60" fill="#1f183d"/>
<rect x="160" y="120" width="2" height="60" fill="#1f183d"/>
<rect x="180" y="120" width="2" height="60" fill="#1f183d"/>
<rect x="200" y="120" width="2" height="60" fill="#1f183d"/>
<rect x="220" y="120" width="2" height="60" fill="#1f183d"/>
<rect x="240" y="120" width="2" height="60" fill="#1f183d"/>
<rect x="260" y="120" width="2" height="60" fill="#1f183d"/>
<rect x="280" y="120" width="2" height="60" fill="#1f183d"/>
<rect x="300" y="120" width="2" height="60" fill="#1f183d"/>
<rect x="40" y="40" width="70" height="70" fill="#1f183d"/>
<rect x="48" y="48" width="54" height="54" fill="#0a3a5c"/>
<rect x="56" y="56" width="38" height="38" fill="#9fdfff"/>
<rect x="62" y="62" width="12" height="8" fill="rgba(255,255,255,0.45)"/>
<rect x="0" y="150" width="320" height="4" fill="#ff79b8"/>
</svg>
